<?xml version="1.0" encoding="utf-8"?>
<svg xmlns="http://www.w3.org/2000/svg" style="margin: auto; background: none; display: block; shape-rendering: auto;" width="262" height="96" preserveAspectRatio="xMidYMid">
<style type="text/css">
  text {
    text-anchor: middle; font-size: 36px; opacity: 0;
  }
</style>
<g style="transform-origin:131px 48px;transform:scale(1)">
<g transform="translate(131,48)">
  <g transform="translate(0,0)"><g class="path" style="transform: scale(0.91); transform-origin: -104.795px -2.57775px; animation: 0.990099s linear -0.612624s infinite normal forwards running breath-5eccf0ad-c27c-44a1-a555-93b0a3c0d476;"><path d="M17.07 0L15.87 0L5.36-18.35L5.15-19.44L5.15 0L2.88 0L2.88-25.21L4.06-25.21L14.57-6.84L14.80-5.77L14.80-25.21L17.07-25.21L17.07 0" fill="#290908" stroke="none" stroke-width="none" transform="translate(-114.77001953125,10.027253913879395)" style="fill: rgb(41, 9, 8);"></path></g><g class="path" style="transform: scale(0.91); transform-origin: -86.995px 1.02725px; animation: 0.990099s linear -0.571782s infinite normal forwards running breath-5eccf0ad-c27c-44a1-a555-93b0a3c0d476;"><path d="M33.79-4.94L33.79-4.94L33.79-4.94Q33.79-3.85 33.37-2.88L33.37-2.88L33.37-2.88Q32.96-1.92 32.24-1.20L32.24-1.20L32.24-1.20Q31.52-0.47 30.55-0.06L30.55-0.06L30.55-0.06Q29.58 0.35 28.49 0.35L28.49 0.35L27.05 0.35L27.05 0.35Q25.96 0.35 25.00-0.06L25.00-0.06L25.00-0.06Q24.03-0.47 23.31-1.20L23.31-1.20L23.31-1.20Q22.59-1.92 22.17-2.88L22.17-2.88L22.17-2.88Q21.76-3.85 21.76-4.94L21.76-4.94L21.76-13.06L21.76-13.06Q21.76-14.15 22.17-15.12L22.17-15.12L22.17-15.12Q22.59-16.08 23.31-16.80L23.31-16.80L23.31-16.80Q24.03-17.53 25.00-17.94L25.00-17.94L25.00-17.94Q25.96-18.35 27.05-18.35L27.05-18.35L28.49-18.35L28.49-18.35Q29.58-18.35 30.55-17.94L30.55-17.94L30.55-17.94Q31.52-17.53 32.24-16.80L32.24-16.80L32.24-16.80Q32.96-16.08 33.37-15.12L33.37-15.12L33.37-15.12Q33.79-14.15 33.79-13.06L33.79-13.06L33.79-4.94zM31.62-4.82L31.62-13.18L31.62-13.18Q31.62-13.83 31.38-14.41L31.38-14.41L31.38-14.41Q31.13-14.98 30.71-15.40L30.71-15.40L30.71-15.40Q30.29-15.82 29.72-16.07L29.72-16.07L29.72-16.07Q29.14-16.31 28.49-16.31L28.49-16.31L27.05-16.31L27.05-16.31Q26.40-16.31 25.83-16.07L25.83-16.07L25.83-16.07Q25.26-15.82 24.84-15.40L24.84-15.40L24.84-15.40Q24.42-14.98 24.17-14.41L24.17-14.41L24.17-14.41Q23.92-13.83 23.92-13.18L23.92-13.18L23.92-4.82L23.92-4.82Q23.92-4.17 24.17-3.59L24.17-3.59L24.17-3.59Q24.42-3.02 24.84-2.60L24.84-2.60L24.84-2.60Q25.26-2.18 25.83-1.93L25.83-1.93L25.83-1.93Q26.40-1.69 27.05-1.69L27.05-1.69L28.49-1.69L28.49-1.69Q29.14-1.69 29.72-1.93L29.72-1.93L29.72-1.93Q30.29-2.18 30.71-2.60L30.71-2.60L30.71-2.60Q31.13-3.02 31.38-3.59L31.38-3.59L31.38-3.59Q31.62-4.17 31.62-4.82L31.62-4.82" fill="#290908" stroke="none" stroke-width="none" transform="translate(-114.77001953125,10.027253913879395)" style="fill: rgb(73, 18, 18);"></path></g><g class="path" style="transform: scale(0.91); transform-origin: -73.12px -1.31275px; animation: 0.990099s linear -0.530941s infinite normal forwards running breath-5eccf0ad-c27c-44a1-a555-93b0a3c0d476;"><path d="M46.63 0L44.67 0L44.67 0Q43.68 0 42.81-0.37L42.81-0.37L42.81-0.37Q41.94-0.74 41.30-1.39L41.30-1.39L41.30-1.39Q40.66-2.04 40.28-2.90L40.28-2.90L40.28-2.90Q39.90-3.76 39.90-4.75L39.90-4.75L39.90-15.94L36.67-15.94L36.67-18L39.90-18L39.90-22.32L42.06-22.68L42.06-18L46.63-18L46.63-15.94L42.06-15.94L42.06-4.64L42.06-4.64Q42.06-4.10 42.27-3.63L42.27-3.63L42.27-3.63Q42.47-3.16 42.82-2.81L42.82-2.81L42.82-2.81Q43.17-2.46 43.65-2.26L43.65-2.26L43.65-2.26Q44.12-2.06 44.67-2.06L44.67-2.06L46.63-2.06L46.63 0" fill="#290908" stroke="none" stroke-width="none" transform="translate(-114.77001953125,10.027253913879395)" style="fill: rgb(131, 26, 25);"></path></g><g class="path" style="transform: scale(0.91); transform-origin: -58.15px -2.57775px; animation: 0.990099s linear -0.490099s infinite normal forwards running breath-5eccf0ad-c27c-44a1-a555-93b0a3c0d476;"><path d="M62.63 0L60.47 0L60.47-13.18L60.47-13.18Q60.47-13.83 60.22-14.41L60.22-14.41L60.22-14.41Q59.98-14.98 59.55-15.40L59.55-15.40L59.55-15.40Q59.13-15.82 58.56-16.07L58.56-16.07L58.56-16.07Q57.99-16.31 57.34-16.31L57.34-16.31L55.90-16.31L55.90-16.31Q55.25-16.31 54.68-16.07L54.68-16.07L54.68-16.07Q54.11-15.82 53.68-15.40L53.68-15.40L53.68-15.40Q53.26-14.98 53.02-14.41L53.02-14.41L53.02-14.41Q52.77-13.83 52.77-13.18L52.77-13.18L52.77 0L50.61 0L50.61-25.21L52.77-25.21L52.77-16.49L52.77-16.49Q53.51-17.37 54.54-17.86L54.54-17.86L54.54-17.86Q55.58-18.35 56.79-18.35L56.79-18.35L57.34-18.35L57.34-18.35Q58.43-18.35 59.40-17.94L59.40-17.94L59.40-17.94Q60.36-17.53 61.08-16.80L61.08-16.80L61.08-16.80Q61.80-16.08 62.22-15.12L62.22-15.12L62.22-15.12Q62.63-14.15 62.63-13.06L62.63-13.06L62.63 0" fill="#290908" stroke="none" stroke-width="none" transform="translate(-114.77001953125,10.027253913879395)" style="fill: rgb(194, 66, 41);"></path></g><g class="path" style="transform: scale(0.91); transform-origin: -46.015px -13.7377px; animation: 0.990099s linear -0.449257s infinite normal forwards running breath-5eccf0ad-c27c-44a1-a555-93b0a3c0d476;"><path d="M70.01-22.32L67.50-22.32L67.50-25.21L70.01-25.21L70.01-22.32" fill="#290908" stroke="none" stroke-width="none" transform="translate(-114.77001953125,10.027253913879395)" style="fill: rgb(221, 132, 55);"></path></g><g class="path" style="transform: scale(0.91); transform-origin: -46.01px 1.02725px; animation: 0.990099s linear -0.408416s infinite normal forwards running breath-5eccf0ad-c27c-44a1-a555-93b0a3c0d476;"><path d="M69.84 0L67.68 0L67.68-18L69.84-18L69.84 0" fill="#290908" stroke="none" stroke-width="none" transform="translate(-114.77001953125,10.027253913879395)" style="fill: rgb(238, 180, 64);"></path></g><g class="path" style="transform: scale(0.91); transform-origin: -33.875px 0.852254px; animation: 0.990099s linear -0.367574s infinite normal forwards running breath-5eccf0ad-c27c-44a1-a555-93b0a3c0d476;"><path d="M86.91 0L84.74 0L84.74-13.18L84.74-13.18Q84.74-13.83 84.50-14.41L84.50-14.41L84.50-14.41Q84.25-14.98 83.83-15.40L83.83-15.40L83.83-15.40Q83.41-15.82 82.84-16.07L82.84-16.07L82.84-16.07Q82.27-16.31 81.62-16.31L81.62-16.31L80.17-16.31L80.17-16.31Q79.52-16.31 78.95-16.07L78.95-16.07L78.95-16.07Q78.38-15.82 77.96-15.40L77.96-15.40L77.96-15.40Q77.54-14.98 77.29-14.41L77.29-14.41L77.29-14.41Q77.04-13.83 77.04-13.18L77.04-13.18L77.04 0L74.88 0L74.88-18L75.60-18L76.78-16.17L76.78-16.17Q77.52-17.17 78.64-17.76L78.64-17.76L78.64-17.76Q79.75-18.35 81.07-18.35L81.07-18.35L81.62-18.35L81.62-18.35Q82.71-18.35 83.67-17.94L83.67-17.94L83.67-17.94Q84.64-17.53 85.36-16.80L85.36-16.80L85.36-16.80Q86.08-16.08 86.49-15.12L86.49-15.12L86.49-15.12Q86.91-14.15 86.91-13.06L86.91-13.06L86.91 0" fill="#290908" stroke="none" stroke-width="none" transform="translate(-114.77001953125,10.027253913879395)" style="fill: rgb(216, 206, 167);"></path></g><g class="path" style="transform: scale(0.91); transform-origin: -17.35px 4.45725px; animation: 0.990099s linear -0.326733s infinite normal forwards running breath-5eccf0ad-c27c-44a1-a555-93b0a3c0d476;"><path d="M103.43 2.27L103.43 2.27L103.43 2.27Q103.43 3.36 103.02 4.27L103.02 4.27L103.02 4.27Q102.60 5.19 101.88 5.84L101.88 5.84L101.88 5.84Q101.16 6.49 100.20 6.85L100.20 6.85L100.20 6.85Q99.23 7.21 98.14 7.21L98.14 7.21L97.24 7.21L97.24 7.21Q96.15 7.21 95.19 6.85L95.19 6.85L95.19 6.85Q94.22 6.49 93.50 5.84L93.50 5.84L93.50 5.84Q92.78 5.19 92.36 4.27L92.36 4.27L92.36 4.27Q91.95 3.36 91.95 2.27L91.95 2.27L91.95 2.20L91.95 2.20Q91.95 1.14 92.34 0.26L92.34 0.26L92.34 0.26Q92.72-0.62 93.39-1.27L93.39-1.27L93.39-1.27Q92.55-1.78 92.05-2.65L92.05-2.65L92.05-2.65Q91.55-3.52 91.55-4.57L91.55-4.57L91.55-4.57Q91.55-5.52 91.95-6.34L91.95-6.34L91.95-6.34Q92.36-7.15 93.06-7.66L93.06-7.66L93.06-7.66Q92.21-8.40 91.72-9.44L91.72-9.44L91.72-9.44Q91.23-10.48 91.23-11.71L91.23-11.71L91.23-13.06L91.23-13.06Q91.23-14.15 91.64-15.12L91.64-15.12L91.64-15.12Q92.06-16.08 92.78-16.80L92.78-16.80L92.78-16.80Q93.50-17.53 94.46-17.94L94.46-17.94L94.46-17.94Q95.43-18.35 96.52-18.35L96.52-18.35L97.42-18.35L97.42-18.35Q98.74-18.35 99.85-17.76L99.85-17.76L99.85-17.76Q100.97-17.17 101.71-16.17L101.71-16.17L102.88-18L103.61-18L103.61-11.71L103.61-11.71Q103.61-10.62 103.19-9.65L103.19-9.65L103.19-9.65Q102.78-8.68 102.06-7.96L102.06-7.96L102.06-7.96Q101.34-7.24 100.37-6.83L100.37-6.83L100.37-6.83Q99.40-6.42 98.31-6.42L98.31-6.42L95.19-6.42L95.19-6.42Q94.82-6.42 94.48-6.27L94.48-6.27L94.48-6.27Q94.15-6.12 93.89-5.87L93.89-5.87L93.89-5.87Q93.64-5.63 93.50-5.28L93.50-5.28L93.50-5.28Q93.36-4.94 93.36-4.57L93.36-4.57L93.36-4.57Q93.36-4.20 93.50-3.87L93.50-3.87L93.50-3.87Q93.64-3.53 93.89-3.28L93.89-3.28L93.89-3.28Q94.15-3.02 94.48-2.88L94.48-2.88L94.48-2.88Q94.82-2.74 95.19-2.74L95.19-2.74L98.14-2.74L98.14-2.74Q99.23-2.74 100.20-2.38L100.20-2.38L100.20-2.38Q101.16-2.02 101.88-1.37L101.88-1.37L101.88-1.37Q102.60-0.72 103.02 0.19L103.02 0.19L103.02 0.19Q103.43 1.11 103.43 2.20L103.43 2.20L103.43 2.27zM101.46-11.58L101.46-13.18L101.46-13.18Q101.46-13.83 101.21-14.41L101.21-14.41L101.21-14.41Q100.97-14.98 100.54-15.40L100.54-15.40L100.54-15.40Q100.11-15.82 99.54-16.07L99.54-16.07L99.54-16.07Q98.96-16.31 98.31-16.31L98.31-16.31L96.52-16.31L96.52-16.31Q95.87-16.31 95.30-16.07L95.30-16.07L95.30-16.07Q94.73-15.82 94.31-15.40L94.31-15.40L94.31-15.40Q93.88-14.98 93.64-14.41L93.64-14.41L93.64-14.41Q93.39-13.83 93.39-13.18L93.39-13.18L93.39-11.58L93.39-11.58Q93.39-10.93 93.64-10.36L93.64-10.36L93.64-10.36Q93.88-9.79 94.31-9.37L94.31-9.37L94.31-9.37Q94.73-8.95 95.30-8.70L95.30-8.70L95.30-8.70Q95.87-8.46 96.52-8.46L96.52-8.46L98.31-8.46L98.31-8.46Q98.96-8.46 99.54-8.70L99.54-8.70L99.54-8.70Q100.11-8.95 100.54-9.37L100.54-9.37L100.54-9.37Q100.97-9.79 101.21-10.36L101.21-10.36L101.21-10.36Q101.46-10.93 101.46-11.58L101.46-11.58zM101.37 2.37L101.37 2.09L101.37 2.09Q101.37 1.44 101.13 0.92L101.13 0.92L101.13 0.92Q100.88 0.40 100.46 0.05L100.46 0.05L100.46 0.05Q100.04-0.30 99.47-0.49L99.47-0.49L99.47-0.49Q98.89-0.69 98.24-0.69L98.24-0.69L97.14-0.69L97.14-0.69Q96.49-0.69 95.92-0.49L95.92-0.49L95.92-0.49Q95.34-0.30 94.92 0.05L94.92 0.05L94.92 0.05Q94.50 0.40 94.25 0.92L94.25 0.92L94.25 0.92Q94.01 1.44 94.01 2.09L94.01 2.09L94.01 2.37L94.01 2.37Q94.01 3.02 94.25 3.53L94.25 3.53L94.25 3.53Q94.50 4.04 94.92 4.40L94.92 4.40L94.92 4.40Q95.34 4.76 95.92 4.96L95.92 4.96L95.92 4.96Q96.49 5.15 97.14 5.15L97.14 5.15L98.24 5.15L98.24 5.15Q98.89 5.15 99.47 4.96L99.47 4.96L99.47 4.96Q100.04 4.76 100.46 4.40L100.46 4.40L100.46 4.40Q100.88 4.04 101.13 3.53L101.13 3.53L101.13 3.53Q101.37 3.02 101.37 2.37L101.37 2.37" fill="#290908" stroke="none" stroke-width="none" transform="translate(-114.77001953125,10.027253913879395)" style="fill: rgb(41, 9, 8);"></path></g><g class="path" style="transform: scale(0.91); transform-origin: 4.26998px -2.57775px; animation: 0.990099s linear -0.285891s infinite normal forwards running breath-5eccf0ad-c27c-44a1-a555-93b0a3c0d476;"><path d="M124.03-23.15L122.04-23.15L122.04-23.15Q121.50-23.15 121.03-22.95L121.03-22.95L121.03-22.95Q120.57-22.75 120.22-22.39L120.22-22.39L120.22-22.39Q119.87-22.04 119.66-21.57L119.66-21.57L119.66-21.57Q119.46-21.09 119.46-20.55L119.46-20.55L119.46-18L123.66-18L123.66-15.94L119.46-15.94L119.46 0L117.30 0L117.30-15.94L114.05-15.94L114.05-18L117.30-18L117.30-20.44L117.30-20.44Q117.30-21.43 117.67-22.30L117.67-22.30L117.67-22.30Q118.04-23.17 118.69-23.82L118.69-23.82L118.69-23.82Q119.34-24.47 120.20-24.84L120.20-24.84L120.20-24.84Q121.06-25.21 122.04-25.21L122.04-25.21L124.03-25.21L124.03-23.15" fill="#290908" stroke="none" stroke-width="none" transform="translate(-114.77001953125,10.027253913879395)" style="fill: rgb(73, 18, 18);"></path></g><g class="path" style="transform: scale(0.91); transform-origin: 17.435px 1.02725px; animation: 0.990099s linear -0.24505s infinite normal forwards running breath-5eccf0ad-c27c-44a1-a555-93b0a3c0d476;"><path d="M138.22-4.94L138.22-4.94L138.22-4.94Q138.22-3.85 137.80-2.88L137.80-2.88L137.80-2.88Q137.39-1.92 136.67-1.20L136.67-1.20L136.67-1.20Q135.95-0.47 134.98-0.06L134.98-0.06L134.98-0.06Q134.02 0.35 132.93 0.35L132.93 0.35L131.48 0.35L131.48 0.35Q130.39 0.35 129.43-0.06L129.43-0.06L129.43-0.06Q128.46-0.47 127.74-1.20L127.74-1.20L127.74-1.20Q127.02-1.92 126.61-2.88L126.61-2.88L126.61-2.88Q126.19-3.85 126.19-4.94L126.19-4.94L126.19-13.06L126.19-13.06Q126.19-14.15 126.61-15.12L126.61-15.12L126.61-15.12Q127.02-16.08 127.74-16.80L127.74-16.80L127.74-16.80Q128.46-17.53 129.43-17.94L129.43-17.94L129.43-17.94Q130.39-18.35 131.48-18.35L131.48-18.35L132.93-18.35L132.93-18.35Q134.02-18.35 134.98-17.94L134.98-17.94L134.98-17.94Q135.95-17.53 136.67-16.80L136.67-16.80L136.67-16.80Q137.39-16.08 137.80-15.12L137.80-15.12L137.80-15.12Q138.22-14.15 138.22-13.06L138.22-13.06L138.22-4.94zM136.05-4.82L136.05-13.18L136.05-13.18Q136.05-13.83 135.81-14.41L135.81-14.41L135.81-14.41Q135.56-14.98 135.14-15.40L135.14-15.40L135.14-15.40Q134.72-15.82 134.15-16.07L134.15-16.07L134.15-16.07Q133.58-16.31 132.93-16.31L132.93-16.31L131.48-16.31L131.48-16.31Q130.83-16.31 130.26-16.07L130.26-16.07L130.26-16.07Q129.69-15.82 129.27-15.40L129.27-15.40L129.27-15.40Q128.85-14.98 128.60-14.41L128.60-14.41L128.60-14.41Q128.36-13.83 128.36-13.18L128.36-13.18L128.36-4.82L128.36-4.82Q128.36-4.17 128.60-3.59L128.60-3.59L128.60-3.59Q128.85-3.02 129.27-2.60L129.27-2.60L129.27-2.60Q129.69-2.18 130.26-1.93L130.26-1.93L130.26-1.93Q130.83-1.69 131.48-1.69L131.48-1.69L132.93-1.69L132.93-1.69Q133.58-1.69 134.15-1.93L134.15-1.93L134.15-1.93Q134.72-2.18 135.14-2.60L135.14-2.60L135.14-2.60Q135.56-3.02 135.81-3.59L135.81-3.59L135.81-3.59Q136.05-4.17 136.05-4.82L136.05-4.82" fill="#290908" stroke="none" stroke-width="none" transform="translate(-114.77001953125,10.027253913879395)" style="fill: rgb(131, 26, 25);"></path></g><g class="path" style="transform: scale(0.91); transform-origin: 33.78px 1.20225px; animation: 0.990099s linear -0.204208s infinite normal forwards running breath-5eccf0ad-c27c-44a1-a555-93b0a3c0d476;"><path d="M154.56 0L153.84 0L152.65-1.83L152.65-1.83Q151.91-0.83 150.80-0.24L150.80-0.24L150.80-0.24Q149.70 0.35 148.38 0.35L148.38 0.35L147.83 0.35L147.83 0.35Q146.74 0.35 145.78-0.06L145.78-0.06L145.78-0.06Q144.81-0.47 144.09-1.20L144.09-1.20L144.09-1.20Q143.37-1.92 142.95-2.88L142.95-2.88L142.95-2.88Q142.54-3.85 142.54-4.94L142.54-4.94L142.54-18L144.70-18L144.70-4.82L144.70-4.82Q144.70-4.17 144.95-3.59L144.95-3.59L144.95-3.59Q145.20-3.02 145.62-2.60L145.62-2.60L145.62-2.60Q146.04-2.18 146.61-1.93L146.61-1.93L146.61-1.93Q147.18-1.69 147.83-1.69L147.83-1.69L149.27-1.69L149.27-1.69Q149.92-1.69 150.50-1.93L150.50-1.93L150.50-1.93Q151.07-2.18 151.49-2.60L151.49-2.60L151.49-2.60Q151.91-3.02 152.16-3.59L152.16-3.59L152.16-3.59Q152.40-4.17 152.40-4.82L152.40-4.82L152.40-18L154.56-18L154.56 0" fill="#290908" stroke="none" stroke-width="none" transform="translate(-114.77001953125,10.027253913879395)" style="fill: rgb(194, 66, 41);"></path></g><g class="path" style="transform: scale(0.91); transform-origin: 50.13px 0.852254px; animation: 0.990099s linear -0.163366s infinite normal forwards running breath-5eccf0ad-c27c-44a1-a555-93b0a3c0d476;"><path d="M170.91 0L168.75 0L168.75-13.18L168.75-13.18Q168.75-13.83 168.50-14.41L168.50-14.41L168.50-14.41Q168.26-14.98 167.84-15.40L167.84-15.40L167.84-15.40Q167.41-15.82 166.84-16.07L166.84-16.07L166.84-16.07Q166.27-16.31 165.62-16.31L165.62-16.31L164.18-16.31L164.18-16.31Q163.53-16.31 162.96-16.07L162.96-16.07L162.96-16.07Q162.39-15.82 161.96-15.40L161.96-15.40L161.96-15.40Q161.54-14.98 161.30-14.41L161.30-14.41L161.30-14.41Q161.05-13.83 161.05-13.18L161.05-13.18L161.05 0L158.89 0L158.89-18L159.61-18L160.79-16.17L160.79-16.17Q161.53-17.17 162.64-17.76L162.64-17.76L162.64-17.76Q163.76-18.35 165.08-18.35L165.08-18.35L165.62-18.35L165.62-18.35Q166.71-18.35 167.68-17.94L167.68-17.94L167.68-17.94Q168.64-17.53 169.37-16.80L169.37-16.80L169.37-16.80Q170.09-16.08 170.50-15.12L170.50-15.12L170.50-15.12Q170.91-14.15 170.91-13.06L170.91-13.06L170.91 0" fill="#290908" stroke="none" stroke-width="none" transform="translate(-114.77001953125,10.027253913879395)" style="fill: rgb(221, 132, 55);"></path></g><g class="path" style="transform: scale(0.91); transform-origin: 66.48px -2.40275px; animation: 0.990099s linear -0.122525s infinite normal forwards running breath-5eccf0ad-c27c-44a1-a555-93b0a3c0d476;"><path d="M187.26 0L186.54 0L185.34-1.83L185.34-1.83Q184.61-0.83 183.50-0.24L183.50-0.24L183.50-0.24Q182.39 0.35 181.07 0.35L181.07 0.35L180.53 0.35L180.53 0.35Q179.44 0.35 178.47-0.06L178.47-0.06L178.47-0.06Q177.50-0.47 176.78-1.20L176.78-1.20L176.78-1.20Q176.06-1.92 175.65-2.88L175.65-2.88L175.65-2.88Q175.24-3.85 175.24-4.94L175.24-4.94L175.24-13.06L175.24-13.06Q175.24-14.15 175.65-15.12L175.65-15.12L175.65-15.12Q176.06-16.08 176.78-16.80L176.78-16.80L176.78-16.80Q177.50-17.53 178.47-17.94L178.47-17.94L178.47-17.94Q179.44-18.35 180.53-18.35L180.53-18.35L181.07-18.35L181.07-18.35Q182.29-18.35 183.32-17.86L183.32-17.86L183.32-17.86Q184.36-17.37 185.10-16.49L185.10-16.49L185.10-25.21L187.26-25.21L187.26 0zM185.10-4.82L185.10-13.18L185.10-13.18Q185.10-13.83 184.85-14.41L184.85-14.41L184.85-14.41Q184.61-14.98 184.18-15.40L184.18-15.40L184.18-15.40Q183.76-15.82 183.19-16.07L183.19-16.07L183.19-16.07Q182.62-16.31 181.97-16.31L181.97-16.31L180.53-16.31L180.53-16.31Q179.88-16.31 179.31-16.07L179.31-16.07L179.31-16.07Q178.73-15.82 178.31-15.40L178.31-15.40L178.31-15.40Q177.89-14.98 177.64-14.41L177.64-14.41L177.64-14.41Q177.40-13.83 177.40-13.18L177.40-13.18L177.40-4.82L177.40-4.82Q177.40-4.17 177.64-3.59L177.64-3.59L177.64-3.59Q177.89-3.02 178.31-2.60L178.31-2.60L178.31-2.60Q178.73-2.18 179.31-1.93L179.31-1.93L179.31-1.93Q179.88-1.69 180.53-1.69L180.53-1.69L181.97-1.69L181.97-1.69Q182.62-1.69 183.19-1.93L183.19-1.93L183.19-1.93Q183.76-2.18 184.18-2.60L184.18-2.60L184.18-2.60Q184.61-3.02 184.85-3.59L184.85-3.59L184.85-3.59Q185.10-4.17 185.10-4.82L185.10-4.82" fill="#290908" stroke="none" stroke-width="none" transform="translate(-114.77001953125,10.027253913879395)" style="fill: rgb(238, 180, 64);"></path></g><g class="path" style="transform: scale(0.91); transform-origin: 94.81px -5.94275px; animation: 0.990099s linear -0.0816832s infinite normal forwards running breath-5eccf0ad-c27c-44a1-a555-93b0a3c0d476;"><path d="M200.58-17.10L218.58-17.10L218.58-14.84L200.58-14.84L200.58-17.10" fill="#290908" stroke="none" stroke-width="none" transform="translate(-114.77001953125,10.027253913879395)" style="fill: rgb(216, 206, 167);"></path></g><g class="path" style="transform: scale(0.91); transform-origin: 94.81px 0.752254px; animation: 0.990099s linear -0.0408416s infinite normal forwards running breath-5eccf0ad-c27c-44a1-a555-93b0a3c0d476;"><path d="M200.58-10.41L218.58-10.41L218.58-8.14L200.58-8.14L200.58-10.41" fill="#290908" stroke="none" stroke-width="none" transform="translate(-114.77001953125,10.027253913879395)" style="fill: rgb(41, 9, 8);"></path></g><g class="path" style="transform: scale(0.91); transform-origin: 113.255px -0.482746px; animation: 0.990099s linear 0s infinite normal forwards running breath-5eccf0ad-c27c-44a1-a555-93b0a3c0d476;"><path d="M223.63-10.51L223.63-10.51L223.63-10.51Q223.63-13.45 224.19-15.98L224.19-15.98L224.19-15.98Q224.75-18.51 225.76-20.70L225.76-20.70L225.76-20.70Q226.76-22.89 228.14-24.76L228.14-24.76L228.14-24.76Q229.52-26.63 231.15-28.23L231.15-28.23L232.42-26.96L232.42-26.96Q230.98-25.47 229.75-23.66L229.75-23.66L229.75-23.66Q228.53-21.85 227.65-19.77L227.65-19.77L227.65-19.77Q226.78-17.68 226.28-15.36L226.28-15.36L226.28-15.36Q225.79-13.04 225.79-10.51L225.79-10.51L225.79-10.51Q225.79-7.98 226.28-5.66L226.28-5.66L226.28-5.66Q226.78-3.34 227.65-1.26L227.65-1.26L227.65-1.26Q228.53 0.83 229.75 2.64L229.75 2.64L229.75 2.64Q230.98 4.45 232.42 5.94L232.42 5.94L231.15 7.21L231.15 7.21Q229.52 5.61 228.14 3.74L228.14 3.74L228.14 3.74Q226.76 1.86 225.76-0.33L225.76-0.33L225.76-0.33Q224.75-2.53 224.19-5.06L224.19-5.06L224.19-5.06Q223.63-7.59 223.63-10.51" fill="#290908" stroke="none" stroke-width="none" transform="translate(-114.77001953125,10.027253913879395)" style="fill: rgb(73, 18, 18);"></path></g></g>
</g>
</g>
<style id="breath-5eccf0ad-c27c-44a1-a555-93b0a3c0d476" data-anikit="">@keyframes breath-5eccf0ad-c27c-44a1-a555-93b0a3c0d476
{
  0% {
    animation-timing-function: cubic-bezier(0.9647,0.2413,-0.0705,0.7911);
    transform: scale(0.9099999999999999);
  }
  51% {
    animation-timing-function: cubic-bezier(0.9226,0.2631,-0.0308,0.7628);
    transform: scale(1.02994);
  }
  100% {
    transform: scale(0.9099999999999999);
  }
}</style></svg>