<svg width="18" height="19" viewBox="0 0 18 19" fill="none" xmlns="http://www.w3.org/2000/svg">
<path d="M8.63635 0.294189C3.88976 0.294189 0 4.3851 0 9.33423C0 14.2546 3.85431 18.3039 8.63635 18.3039C13.4125 18.3039 17.2727 14.2607 17.2727 9.33423C17.2727 4.3851 13.3829 0.294189 8.63635 0.294189ZM10.1545 17.0904C9.66872 17.1959 9.15254 17.2487 8.63635 17.2487C8.12017 17.2487 7.60399 17.1959 7.11824 17.0904V14.6211C7.11824 14.0301 7.27005 13.8191 7.47247 13.5341C7.57552 13.4113 7.63772 13.3011 8.09988 12.5739L7.32066 12.4472C5.31668 12.1412 4.52731 11.0542 4.21354 10.21C3.80871 9.08099 4.02128 7.66684 4.75002 6.77001C4.86137 6.63274 4.95243 6.40053 4.87152 6.15788C4.71958 5.67243 4.73987 4.90215 4.84108 4.60659C5.37769 4.68656 5.92945 5.08737 6.38963 5.37701C6.60167 5.50603 6.71289 5.47196 6.81462 5.48254C7.1844 5.40229 7.7612 5.20814 8.6465 5.20814C9.19299 5.20814 9.76993 5.29251 10.3367 5.46138C10.4381 5.4589 10.6009 5.54877 10.8832 5.37701C11.3642 5.07143 11.8973 4.68436 12.4316 4.60659C12.5328 4.90215 12.5531 5.67243 12.4013 6.15788C12.3203 6.40053 12.4113 6.63274 12.5228 6.77001C13.2514 7.66698 13.464 9.08099 13.0592 10.21C12.7454 11.0542 11.956 12.1412 9.95205 12.4472L9.17283 12.5739C9.65053 13.3255 9.70087 13.4157 9.80037 13.5341C10.0027 13.8191 10.1545 14.0301 10.1545 14.6211V17.0904ZM11.1665 16.7844V14.6211C11.1665 14.0195 11.045 13.6186 10.8831 13.323C12.4215 12.8905 13.5146 11.9406 14.0003 10.5794C14.5165 9.14434 14.2838 7.43476 13.4234 6.25282C13.5753 5.54588 13.5753 4.4167 13.211 3.88907C13.049 3.657 12.8263 3.53031 12.543 3.53031C12.5328 3.53031 12.5328 3.53031 12.5328 3.53031C11.7481 3.57456 11.1304 3.98663 10.4682 4.40612C9.86099 4.23725 9.2436 4.15289 8.62621 4.15289C7.9988 4.15289 7.37126 4.24783 6.81475 4.40612C6.11764 3.9678 5.50591 3.57346 4.69942 3.53031C4.4464 3.53031 4.22369 3.657 4.06173 3.88907C3.69749 4.4167 3.69749 5.54588 3.8493 6.25282C2.98891 7.43476 2.75618 9.15478 3.27237 10.5794C3.75811 11.9406 4.85123 12.8905 6.38963 13.323C6.26404 13.5521 6.16468 13.8477 6.12554 14.2476C5.81481 14.3593 5.54531 14.3958 5.29467 14.3189C5.03032 14.2375 4.82434 14.0535 4.64539 13.7397C4.24346 13.0356 3.55886 12.4608 2.77938 12.5356L2.86833 13.5867C3.22928 13.5522 3.58851 13.9504 3.77511 14.2787C4.08295 14.8192 4.49766 15.1737 5.00805 15.3309C5.38691 15.4473 5.73323 15.4446 6.10617 15.3616V16.7844C3.16101 15.708 1.01207 12.7744 1.01207 9.33423C1.01207 4.96549 4.4464 1.34945 8.63635 1.34945C12.8263 1.34945 16.2606 4.96549 16.2606 9.33423C16.2606 12.7744 14.1117 15.708 11.1665 16.7844Z" fill="white"/>
</svg>
